PathFileType	4	(X/Y/Z)	./resultDataOpenSim/trcMotMarkerGrf/sub06/qtm-14-04.trc
DataRate	CameraRate	NumFrames	NumMarkers	Units	OrigDataRate	OrigDataStartFrame	OrigNumFrames
250.000000	250.000000	10	24	m	250.000000	407	542
Frame#	Time	L.Toe.Tip			R.Toe.Tip			L.Ankle.Lat			R.Ankle.Lat			L.Ankle.Med			R.Ankle.Med			L.Heel			R.Heel			L.Knee.Lat			R.Knee.Lat			L.Knee.Med			R.Knee.Med			L.Thigh.Upper			R.Thigh.Upper			L.ASIS			R.ASIS			V.Sacral			L.Acromium			R.Acromium			C7			L.Elbow			R.Elbow			L.Wrist.Lat			R.Wrist.Lat
		X1	Y1	Z1	X2	Y2	Z2	X3	Y3	Z3	X4	Y4	Z4	X5	Y5	Z5	X6	Y6	Z6	X7	Y7	Z7	X8	Y8	Z8	X9	Y9	Z9	X10	Y10	Z10	X11	Y11	Z11	X12	Y12	Z12	X13	Y13	Z13	X14	Y14	Z14	X15	Y15	Z15	X16	Y16	Z16	X17	Y17	Z17	X18	Y18	Z18	X19	Y19	Z19	X20	Y20	Z20	X21	Y21	Z21	X22	Y22	Z22	X23	Y23	Z23	X24	Y24	Z24

407	1.624	1.5268487	0.12737331	-0.12545188	0.86576236	0.035000151	0.097936404	1.3988861	0.11248269	-0.14387851	0.75270358	0.10622795	0.13278837	1.4010897	0.1273449	-0.060012815	0.77272586	0.11993678	0.045012815	1.3454033	0.05548443	-0.098307247	0.69161953	0.10734446	0.078414849	1.3001627	0.46893149	-0.13863367	0.95857122	0.44364383	0.13780005	1.2812198	0.4580116	-0.014589988	0.92576478	0.44151984	0.0098572173	1.102129	0.80987117	-0.17400762	1.0527313	0.79689438	0.1751961	1.1638788	0.85812722	-0.12015552	1.1572855	0.84860747	0.12807007	0.97528789	0.92448041	0.0016005549	1.0793932	1.3338023	-0.18328067	1.1182239	1.3253768	0.17550717	1.0221308	1.3656322	0.0050760718	0.93556552	1.0624162	-0.22366525	1.174607	1.0188836	0.28965597	0.94834202	0.83378649	-0.30719033	1.4125873	1.0554491	0.21256145
408	1.628	1.5361476	0.12851098	-0.12600691	0.86589129	0.034977289	0.097967922	1.4083748	0.11233013	-0.14485828	0.75356698	0.10724686	0.13291808	1.4092862	0.12651175	-0.061026844	0.77390813	0.12075444	0.045087201	1.3553169	0.05448059	-0.099890545	0.69266755	0.1090706	0.078608193	1.3062734	0.46723359	-0.1387114	0.96288971	0.44279084	0.13744183	1.2864031	0.45571427	-0.0144982	0.93040834	0.44068543	0.0094644787	1.108914	0.80821324	-0.17475496	1.0581293	0.79584234	0.17428867	1.170854	0.85634894	-0.12134997	1.1629396	0.84718107	0.12749161	0.98121929	0.92313464	0.00020136795	1.0851117	1.3322825	-0.18452399	1.1236636	1.3240859	0.1743605	1.0276277	1.364185	0.0037675217	0.94075207	1.0613173	-0.22437534	1.1811589	1.0177306	0.28840742	0.95205242	0.83277951	-0.30824537	1.4188975	1.0553371	0.21103503
409	1.632	1.5449638	0.12926841	-0.12656581	0.86603574	0.03494837	0.097982325	1.4173777	0.11201817	-0.14575349	0.75457729	0.10831127	0.13305819	1.4171912	0.125599	-0.061948548	0.77512934	0.1216125	0.04517134	1.364716	0.053414192	-0.10121651	0.69378945	0.11086428	0.078767541	1.3124469	0.46568951	-0.13884582	0.96730843	0.44190221	0.13707351	1.2916803	0.45358434	-0.014496644	0.93517163	0.43979586	0.0090645453	1.1157902	0.80659137	-0.17550613	1.0634359	0.7947271	0.1732652	1.1778918	0.85461582	-0.12245816	1.1685855	0.8457585	0.12694416	0.98726842	0.92180824	-0.0010929492	1.0908796	1.3307461	-0.18580498	1.1291319	1.3227774	0.17319353	1.0331667	1.3627401	0.0024225268	0.94605703	1.0601637	-0.22511628	1.1876561	1.01654	0.28711274	0.95593062	0.83171395	-0.30929759	1.4251518	1.0550648	0.20950528
410	1.636	1.5533105	0.12965812	-0.12714419	0.86620618	0.034918607	0.09799045	1.4259054	0.11151577	-0.14656177	0.75571966	0.10944705	0.13319921	1.425013	0.12465808	-0.062758271	0.77636776	0.1225223	0.045293869	1.3735669	0.052293869	-0.10233261	0.69499182	0.11272749	0.078895591	1.3186624	0.46428108	-0.13905376	0.97180589	0.44099533	0.13669534	1.2970239	0.45161734	-0.014611648	0.94005193	0.43885957	0.0086601149	1.1227467	0.80501429	-0.17624768	1.0687571	0.79357104	0.17223329	1.1849315	0.85294304	-0.1234163	1.174141	0.84436054	0.12643852	0.99346508	0.92049262	-0.0023026672	1.0967019	1.3291904	-0.18712565	1.1346305	1.3214546	0.17200327	1.0387502	1.3612988	0.0010381695	0.95148454	1.0589556	-0.22588423	1.1940951	1.0153144	0.28575935	0.95997478	0.83059116	-0.31034704	1.4313545	1.0546316	0.20796711
411	1.64	1.5612191	0.12969089	-0.12775914	0.86640384	0.03488843	0.098005313	1.4339647	0.11080454	-0.14728588	0.75693524	0.11066291	0.13332477	1.4326919	0.12366592	-0.063466023	0.77764107	0.12348838	0.045454517	1.3818613	0.05110959	-0.10327351	0.69628344	0.11466294	0.078996208	1.3248965	0.4629792	-0.13934547	0.97636122	0.44008161	0.13630745	1.3024511	0.449824	-0.014864077	0.94504987	0.43788439	0.0082543802	1.1297716	0.8034905	-0.1769726	1.0741536	0.79240409	0.17122131	1.191959	0.85132587	-0.1242306	1.1795434	0.84300496	0.12597796	0.99979732	0.9191827	-0.0034438003	1.1025841	1.3276173	-0.18848141	1.1401606	1.3201209	0.17079192	1.0443911	1.3598572	-0.00038230411	0.95703474	1.0576959	-0.2266764	1.2004654	1.0140545	0.28435418	0.96419676	0.82941512	-0.3113958	1.4375092	1.0540405	0.20642409
412	1.644	1.568728	0.1293748	-0.12841874	0.86662379	0.034857737	0.098035164	1.4415768	0.10987075	-0.14794429	0.75820457	0.11194896	0.13342774	1.4400824	0.12257793	-0.064097344	0.7789932	0.12450932	0.045626338	1.3896198	0.049826345	-0.10404897	0.69767207	0.11667501	0.079071918	1.3311254	0.46174814	-0.13972545	0.98098474	0.439161	0.13591553	1.3079833	0.44821537	-0.015262329	0.95017098	0.43687424	0.0078515588	1.1368594	0.80202836	-0.1776846	1.0796625	0.79122498	0.17021858	1.1989793	0.84975494	-0.12492926	1.1848592	0.84169168	0.12554806	1.00626	0.91786692	-0.0045177378	1.108527	1.326035	-0.1898643	1.1457256	1.3187793	0.16956208	1.0500989	1.3584115	-0.001829511	0.96270519	1.0563923	-0.22749391	1.2067561	1.0127606	0.28291936	0.96860756	0.82818941	-0.31244178	1.4436199	1.053293	0.20488944
413	1.648	1.5758471	0.12869927	-0.1291048	0.86686581	0.034831577	0.098087895	1.4487702	0.10870492	-0.14856657	0.75956586	0.11328978	0.13350854	1.4471013	0.12136571	-0.064678014	0.7804537	0.12558352	0.045789157	1.3968621	0.048420498	-0.10467667	0.69916119	0.11876529	0.079125164	1.337331	0.46055397	-0.14019476	0.98571921	0.43822261	0.13552955	1.3136448	0.4467897	-0.015799996	0.95542144	0.43582588	0.0074565588	1.1440034	0.8006323	-0.17838908	1.0853477	0.78998628	0.16925538	1.2059982	0.84822281	-0.12553759	1.1902844	0.84040106	0.12512101	1.0128519	0.91652485	-0.005554009	1.1145282	1.3244502	-0.19127098	1.1513278	1.3174332	0.1683111	1.0558593	1.3569692	-0.0032996598	0.96848984	1.0550502	-0.22833938	1.2129597	1.011435	0.28147394	0.97321031	0.82691469	-0.31348119	1.44969	1.0523889	0.20337361
414	1.652	1.5825462	0.12763313	-0.12977519	0.86713444	0.034818372	0.098171128	1.4555519	0.10730569	-0.14916901	0.76107017	0.11468341	0.13356813	1.4537269	0.12000967	-0.065226962	0.78203212	0.12670747	0.04594033	1.4035985	0.046891637	-0.10518817	0.70075159	0.12093139	0.079160243	1.3435057	0.45937157	-0.14075197	0.99059714	0.43725313	0.13515486	1.3194708	0.44553092	-0.016465795	0.96080216	0.43473152	0.0070765066	1.1511904	0.79930254	-0.17909567	1.0912897	0.78860969	0.16839648	1.2130174	0.84672447	-0.12607338	1.1959698	0.83911259	0.12468231	1.0195499	0.9151407	-0.006627245	1.1205898	1.3228624	-0.19270643	1.156967	1.3160842	0.16703367	1.0616305	1.3555556	-0.0048057326	0.97437707	1.0536712	-0.22921266	1.2190759	1.0100831	0.28002072	0.97800569	0.82558984	-0.31451227	1.4557161	1.051331	0.20186885
415	1.656	1.5887954	0.12615408	-0.13039349	0.86742486	0.034820623	0.098281629	1.4618955	0.10568125	-0.14974265	0.76272134	0.1161397	0.13360916	1.4599559	0.11849063	-0.065755773	0.78374198	0.12787035	0.046077178	1.4098342	0.045247262	-0.10561883	0.70244933	0.12317189	0.07918196	1.3496543	0.45818593	-0.14139365	0.99561509	0.43624543	0.13478933	1.3254766	0.44440951	-0.017252801	0.96630929	0.43358328	0.0067199313	1.1584029	0.79803843	-0.17982153	1.0975196	0.7870576	0.16763268	1.2200355	0.84525608	-0.12655014	1.2019084	0.83781977	0.12425029	1.0263015	0.91372121	-0.0077872686	1.126718	1.3212686	-0.19417679	1.1626397	1.314734	0.16572649	1.0673716	1.3542075	-0.0063699056	0.98035721	1.0522583	-0.2301116	1.225108	1.0087099	0.27854629	0.98299852	0.8242147	-0.31553675	1.4616907	1.0501268	0.20035483
416	1.66	1.5946023	0.12427497	-0.13094917	0.86771583	0.034830834	0.098400778	1.4677756	0.10384793	-0.15027556	0.76446052	0.11765642	0.13364254	1.4657873	0.11679507	-0.066272683	0.7856039	0.12905797	0.046199916	1.4155737	0.043491729	-0.10600285	0.70426947	0.1254922	0.079186412	1.3557915	0.45699073	-0.14211403	1.0007567	0.43519901	0.13442922	1.3316456	0.44338655	-0.018150673	0.97194199	0.43237247	0.0063928972	1.1656236	0.79683843	-0.18057726	1.1039928	0.7853826	0.16682163	1.2270502	0.84381397	-0.12698038	1.2080179	0.8365232	0.12386083	1.033044	0.91228876	-0.0089945814	1.1329139	1.3196689	-0.19568008	1.1683409	1.3133848	0.16438891	1.073092	1.3529331	-0.007993422	0.98643309	1.0508137	-0.23103532	1.2310524	1.0073174	0.27703391	0.98819664	0.8227893	-0.31655847	1.4676091	1.0487851	0.19881952
